<svg xmlns="http://www.w3.org/2000/svg" version="1.1" xmlns:xlink="http://www.w3.org/1999/xlink" xmlns:svgjs="http://svgjs.dev/svgjs" width="1000" height="580" viewBox="0 0 1000 580"><g transform="matrix(1,0,0,1,-0.606029705171693,0.07929337515543011)"><svg viewBox="0 0 396 230" data-background-color="#ffffff" preserveAspectRatio="xMidYMid meet" height="580" width="1000" xmlns="http://www.w3.org/2000/svg" xmlns:xlink="http://www.w3.org/1999/xlink"><g id="tight-bounds" transform="matrix(1,0,0,1,0.23998776324799564,-0.031443924630593756)"><svg viewBox="0 0 395.52 230.0628878492612" height="230.0628878492612" width="395.52"><g><svg viewBox="0 0 395.52 230.0628878492612" height="230.0628878492612" width="395.52"><g transform="matrix(1,0,0,1,0,180.92534431984942)"><svg viewBox="0 0 395.52 49.137543529411765" height="49.137543529411765" width="395.52"><g id="textblocktransform"><svg viewBox="0 0 395.52 49.137543529411765" height="49.137543529411765" width="395.52" id="textblock"><g><svg viewBox="0 0 395.52 49.137543529411765" height="49.137543529411765" width="395.52"><g transform="matrix(1,0,0,1,0,0)"><svg width="395.52" viewBox="4.449999809265137 -37.95000076293945 318.72998046875 39.60000228881836" height="49.137543529411765" data-palette-color="#001f3f"><path d="M4.45 0L4.45-37.85Q4.9-37.15 6.33-35.18 7.75-33.2 9.63-30.6 11.5-28 13.6-25.08 15.7-22.15 17.55-19.58 19.4-17 20.78-15.1 22.15-13.2 22.6-12.6L22.6-12.6Q22.75-12.85 23.55-13.95 24.35-15.05 25.53-16.7 26.7-18.35 28.2-20.43 29.7-22.5 31.28-24.68 32.85-26.85 34.38-29 35.9-31.15 37.2-32.93 38.5-34.7 39.43-36.02 40.35-37.35 40.75-37.85L40.75-37.85 40.75 0 34.95 0 34.95-20.3Q34.95-20.7 35.02-21.15 35.1-21.6 35.1-21.8L35.1-21.8Q34.65-21.2 33.68-19.78 32.7-18.35 31.43-16.53 30.15-14.7 28.75-12.68 27.35-10.65 26.1-8.85 24.85-7.05 23.9-5.68 22.95-4.3 22.6-3.75L22.6-3.75Q22.25-4.2 21.23-5.63 20.2-7.05 18.82-8.95 17.45-10.85 15.93-13 14.4-15.15 13.1-17 11.8-18.85 10.85-20.18 9.9-21.5 9.75-21.8L9.75-21.8Q9.75-21.6 9.83-21.15 9.9-20.7 9.9-20.3L9.9-20.3 9.9 0 4.45 0ZM77.7-36.25L64.35-11.95 64.35 0 58.85 0 58.85-11.95Q58.5-12.5 57.47-14.35 56.45-16.2 55.07-18.73 53.7-21.25 52.12-24.1 50.55-26.95 49.17-29.48 47.8-32 46.77-33.85 45.75-35.7 45.4-36.25L45.4-36.25 51.6-36.25Q52.05-35.5 53.2-33.38 54.35-31.25 55.75-28.58 57.15-25.9 58.6-23.18 60.05-20.45 61.05-18.5L61.05-18.5 61.6-16.85Q61.8-17.25 61.95-17.68 62.1-18.1 62.25-18.5L62.25-18.5Q63.3-20.45 64.7-23.18 66.1-25.9 67.47-28.58 68.85-31.25 69.97-33.38 71.1-35.5 71.55-36.25L71.55-36.25 77.7-36.25ZM82.45 0L82.45-37.85Q82.9-37.15 84.32-35.18 85.75-33.2 87.62-30.6 89.5-28 91.59-25.08 93.7-22.15 95.55-19.58 97.4-17 98.77-15.1 100.15-13.2 100.59-12.6L100.59-12.6Q100.75-12.85 101.55-13.95 102.34-15.05 103.52-16.7 104.7-18.35 106.2-20.43 107.7-22.5 109.27-24.68 110.84-26.85 112.37-29 113.9-31.15 115.2-32.93 116.5-34.7 117.42-36.02 118.34-37.35 118.75-37.85L118.75-37.85 118.75 0 112.95 0 112.95-20.3Q112.95-20.7 113.02-21.15 113.09-21.6 113.09-21.8L113.09-21.8Q112.65-21.2 111.67-19.78 110.7-18.35 109.42-16.53 108.15-14.7 106.75-12.68 105.34-10.65 104.09-8.85 102.84-7.05 101.9-5.68 100.95-4.3 100.59-3.75L100.59-3.75Q100.25-4.2 99.22-5.63 98.2-7.05 96.82-8.95 95.45-10.85 93.92-13 92.4-15.15 91.09-17 89.8-18.85 88.84-20.18 87.9-21.5 87.75-21.8L87.75-21.8Q87.75-21.6 87.82-21.15 87.9-20.7 87.9-20.3L87.9-20.3 87.9 0 82.45 0ZM155.49 0L150.09 0Q149.84-0.55 149.39-1.6 148.94-2.65 148.37-4.03 147.79-5.4 147.12-7.03 146.44-8.65 145.74-10.4L145.74-10.4 132.94-10.4 128.64 0 123.24 0 139.39-37.95Q139.69-37.25 140.47-35.4 141.24-33.55 142.32-30.98 143.39-28.4 144.72-25.28 146.04-22.15 147.42-18.95 148.79-15.75 150.12-12.65 151.44-9.55 152.54-6.95 153.64-4.35 154.42-2.53 155.19-0.7 155.49 0L155.49 0ZM138.84-24.7L134.84-15 143.89-15Q143.19-16.65 142.57-18.18 141.94-19.7 141.42-20.98 140.89-22.25 140.49-23.2 140.09-24.15 139.89-24.7L139.89-24.7Q139.84-24.8 139.67-25.4 139.49-26 139.39-26.5L139.39-26.5Q139.29-26 139.09-25.4 138.89-24.8 138.84-24.7L138.84-24.7ZM186.34-36.25L191.79-36.25 191.79 1.65Q191.09 0.75 189.09-1.25 187.09-3.25 184.49-5.85 181.89-8.45 178.97-11.3 176.04-14.15 173.44-16.73 170.84-19.3 168.89-21.33 166.94-23.35 166.29-24.2L166.29-24.2 165.34-25.5 165.49-23.9 165.49 0 159.99 0 159.99-37.95Q160.54-37.25 161.82-35.95 163.09-34.65 164.82-32.93 166.54-31.2 168.62-29.2 170.69-27.2 172.82-25.15 174.94-23.1 177.02-21.13 179.09-19.15 180.82-17.45 182.54-15.75 183.79-14.45 185.04-13.15 185.54-12.5L185.54-12.5 186.49-11.1 186.34-12.8 186.34-36.25ZM228.54 0L223.14 0Q222.89-0.55 222.44-1.6 221.99-2.65 221.41-4.03 220.84-5.4 220.16-7.03 219.49-8.65 218.79-10.4L218.79-10.4 205.99-10.4 201.69 0 196.29 0 212.44-37.95Q212.74-37.25 213.51-35.4 214.29-33.55 215.36-30.98 216.44-28.4 217.76-25.28 219.09-22.15 220.46-18.95 221.84-15.75 223.16-12.65 224.49-9.55 225.59-6.95 226.69-4.35 227.46-2.53 228.24-0.7 228.54 0L228.54 0ZM211.89-24.7L207.89-15 216.94-15Q216.24-16.65 215.61-18.18 214.99-19.7 214.46-20.98 213.94-22.25 213.54-23.2 213.14-24.15 212.94-24.7L212.94-24.7Q212.89-24.8 212.71-25.4 212.54-26 212.44-26.5L212.44-26.5Q212.34-26 212.14-25.4 211.94-24.8 211.89-24.7L211.89-24.7ZM246.64-17.35L258.74-17.35 258.74-2.15Q256.63-0.95 253.74-0.28 250.84 0.4 247.84 0.4L247.84 0.4Q243.54 0.4 240.11-0.95 236.69-2.3 234.24-4.67 231.79-7.05 230.49-10.3 229.19-13.55 229.19-17.4L229.19-17.4Q229.19-21.65 230.71-25.18 232.24-28.7 234.86-31.25 237.49-33.8 240.91-35.23 244.34-36.65 248.19-36.65L248.19-36.65Q250.79-36.65 253.64-35.98 256.49-35.3 258.59-34.05L258.59-34.05 255.94-29.6Q255.19-30.05 254.21-30.4 253.24-30.75 252.19-31 251.14-31.25 250.09-31.38 249.04-31.5 248.09-31.5L248.09-31.5Q245.44-31.5 242.99-30.45 240.54-29.4 238.69-27.55 236.84-25.7 235.74-23.2 234.64-20.7 234.64-17.8L234.64-17.8Q234.64-15.15 235.61-12.8 236.59-10.45 238.34-8.65 240.09-6.85 242.54-5.8 244.99-4.75 247.94-4.75L247.94-4.75Q249.09-4.75 250.66-4.98 252.24-5.2 253.69-5.75L253.69-5.75 253.69-12.65 246.64-12.65 246.64-17.35ZM290.43 0L265.93 0 265.93-36.25 289.73-36.25 289.73-31.3 271.43-31.3 271.43-20.7 287.73-20.7 287.73-15.65 271.43-15.65 271.43-5.05 290.43-5.05 290.43 0ZM302.28 0L296.78 0 296.78-36.25 306.68-36.25Q309.53-36.25 311.91-35.5 314.28-34.75 316.01-33.27 317.73-31.8 318.68-29.68 319.63-27.55 319.63-24.8L319.63-24.8Q319.63-23.3 319.33-21.83 319.03-20.35 318.36-18.98 317.68-17.6 316.63-16.43 315.58-15.25 314.08-14.45L314.08-14.45Q316.08-11.3 318.43-7.48 320.78-3.65 323.18 0L323.18 0 316.63 0Q315.63-1.55 314.56-3.25 313.48-4.95 312.41-6.63 311.33-8.3 310.31-9.93 309.28-11.55 308.38-12.95L308.38-12.95 307.38-12.95 302.28-12.95 302.28 0ZM302.28-31.15L302.28-18.1 307.23-18.1Q309.23-18.1 310.58-18.78 311.93-19.45 312.71-20.45 313.48-21.45 313.81-22.6 314.13-23.75 314.13-24.7L314.13-24.7Q314.13-25.65 313.81-26.78 313.48-27.9 312.68-28.88 311.88-29.85 310.56-30.5 309.23-31.15 307.28-31.15L307.28-31.15 302.28-31.15Z" opacity="1" transform="matrix(1,0,0,1,0,0)" fill="#001f3f" class="wordmark-text-0" data-fill-palette-color="primary" id="text-0"></path></svg></g></svg></g></svg></g></svg></g><g transform="matrix(1,0,0,1,113.09742520319999,0)"><svg viewBox="0 0 169.3251495936 169.3251495936" height="169.3251495936" width="169.3251495936"><g><svg></svg></g><g id="icon-0"><svg viewBox="0 0 169.3251495936 169.3251495936" height="169.3251495936" width="169.3251495936"><g><rect width="153.96046009344" height="153.96046009344" x="7.682344750080006" y="7.682344750080006" fill="#e84016" data-fill-palette-color="accent"></rect><rect width="153.96046009344" height="153.96046009344" x="7.105427357601002e-15" y="15.364689500160004" fill="#e84016" opacity="0.5" data-fill-palette-color="accent"></rect></g><g transform="matrix(1,0,0,1,21.9495564288,57.875136901630654)"><svg viewBox="0 0 125.426036736 53.5748757903387" height="53.5748757903387" width="125.426036736"><g><svg xmlns="http://www.w3.org/2000/svg" xmlns:xlink="http://www.w3.org/1999/xlink" version="1.1" x="0" y="0" viewBox="5 30.77899742126465 90.00198364257812 38.44373321533203" enable-background="new 0 0 100 100" xml:space="preserve" height="53.5748757903387" width="125.426036736" class="icon-s-0" data-fill-palette-color="background" id="s-0"><g fill="#ffffff" data-fill-palette-color="background"><path fill="none" d="M53.288 54.867l0.931-1.936c-1.261 1.222-2.773 1.936-4.399 1.936-1.626 0-3.138-0.714-4.399-1.936l0.93 1.936c-0.312-0.513-1.484-0.651-2.858-0.617 0.219 1.316 1.768 2.422 3.905 2.906l2.421 3.935 2.421-3.935c2.137-0.484 3.688-1.59 3.906-2.906C54.771 54.216 53.6 54.354 53.288 54.867z"></path><path fill="#ffffff" d="M22.748 52.015c-0.033 1.525-2.292 2.756-5.077 2.756-2.783 0-5.043-1.23-5.076-2.756C8.335 52.404 5 55.984 5 60.344c0 4.619 3.745 4.607 8.364 4.607h8.614c4.619 0 8.364 0.012 8.364-4.607C30.342 55.984 27.006 52.404 22.748 52.015z" data-fill-palette-color="background"></path><path fill="#ffffff" d="M17.671 51.751c-2.825 0-5.159-3.062-5.534-7.038h-0.769c0.427 4.528 3.086 8.017 6.303 8.017 3.218 0 5.877-3.489 6.304-8.017h-0.768C22.832 48.689 20.497 51.751 17.671 51.751z" data-fill-palette-color="background"></path><path fill="#ffffff" d="M11.068 43.771h13.207c0.515 0 0.932-0.417 0.932-0.931 0-0.515-0.417-0.932-0.932-0.932h-0.253c0-2.474-1.417-4.617-3.483-5.664l-0.526 2.983c-0.041 0.236-0.247 0.402-0.479 0.402-0.028 0-0.056-0.002-0.085-0.007-0.265-0.046-0.441-0.299-0.395-0.564l0.601-3.409c-0.226-0.36-0.625-0.6-1.082-0.6h-1.802c-0.457 0-0.857 0.24-1.083 0.6l0.601 3.409c0.047 0.265-0.13 0.518-0.395 0.564-0.029 0.005-0.057 0.007-0.085 0.007-0.232 0-0.437-0.166-0.479-0.402l-0.526-2.983c-2.066 1.047-3.483 3.19-3.483 5.664h-0.253c-0.515 0-0.932 0.417-0.932 0.932C10.136 43.354 10.553 43.771 11.068 43.771z" data-fill-palette-color="background"></path><path fill="#ffffff" d="M58.357 54.412c1.796 0.201 3.372 0.511 3.372 0.511-3.584-1.97-3.491-9.042-3.491-9.042 0.044-0.965 0.035-1.852-0.01-2.679H56.81c-0.001 0.098-0.003 0.193-0.004 0.284-0.011 0.557-0.022 0.973-0.036 1.066-0.135 1.813-0.597 3.482-1.296 4.883-1.271 2.549-3.33 4.205-5.654 4.206-2.325-0.001-4.383-1.657-5.655-4.206-0.698-1.401-1.16-3.07-1.295-4.883-0.014-0.093-0.025-0.51-0.036-1.066-0.001-0.091-0.003-0.186-0.004-0.284H41.41c-0.045 0.828-0.054 1.714-0.01 2.679 0 0 0.092 7.072-3.491 9.042 0 0 1.576-0.31 3.372-0.511-4.242 1.337-7.319 5.299-7.319 9.982 0 5.781 4.686 4.759 10.467 4.759h5.39 5.39c5.781 0 10.468 1.022 10.468-4.759C65.676 59.711 62.599 55.749 58.357 54.412zM52.24 57.156l-2.421 3.935-2.421-3.935c-2.137-0.484-3.687-1.59-3.905-2.906 1.374-0.034 2.546 0.104 2.858 0.617l-0.93-1.936c1.261 1.222 2.772 1.936 4.399 1.936 1.626 0 3.139-0.714 4.399-1.936l-0.931 1.936c0.312-0.513 1.483-0.651 2.858-0.617C55.928 55.566 54.377 56.672 52.24 57.156z" data-fill-palette-color="background"></path><path fill="#ffffff" d="M41.33 41.992h0.182 1.301 1.169 11.675 1.17 1.301 0.183c0.661 0 1.197-0.537 1.197-1.197 0-0.662-0.536-1.198-1.197-1.198h-0.326c0-3.181-1.821-5.936-4.479-7.282l-0.238 1.354-0.438 2.481c-0.054 0.304-0.317 0.517-0.616 0.517-0.036 0-0.072-0.003-0.108-0.01-0.017-0.002-0.03-0.008-0.045-0.013-0.315-0.08-0.521-0.387-0.463-0.712l0.008-0.043 0.473-2.683 0.292-1.655c-0.29-0.463-0.805-0.772-1.391-0.772h-2.317c-0.587 0-1.101 0.31-1.392 0.772l0.292 1.655 0.473 2.683 0.008 0.043c0.058 0.325-0.148 0.632-0.462 0.712-0.015 0.004-0.029 0.01-0.045 0.013-0.037 0.006-0.073 0.01-0.109 0.01-0.299 0-0.563-0.213-0.615-0.517l-0.438-2.481-0.239-1.354c-2.656 1.346-4.478 4.101-4.478 7.282H41.33c-0.662 0-1.198 0.537-1.198 1.198C40.132 41.455 40.668 41.992 41.33 41.992z" data-fill-palette-color="background"></path><path fill="#ffffff" d="M82.171 51.751c-2.825 0-5.16-3.062-5.535-7.038h-0.769c0.428 4.528 3.086 8.017 6.304 8.017s5.876-3.489 6.304-8.017h-0.769C87.331 48.689 84.996 51.751 82.171 51.751z" data-fill-palette-color="background"></path><path fill="#ffffff" d="M87.711 51.899c-0.014-0.002-0.029-0.003-0.044-0.005-0.118-0.016-0.236-0.029-0.355-0.041 0 0.013-0.004 0.024-0.005 0.036-0.001 0.035-0.007 0.069-0.012 0.105-0.021 0.197-0.081 0.391-0.174 0.575-0.622 1.566-2.635 4.535-3.82 6.221l-0.244-3.502c0.346-0.178 0.644-0.472 0.835-0.812 0.137-0.246 0.221-0.514 0.221-0.786 0 0-0.885 0.392-1.787 0.392-0.052 0-0.103-0.001-0.154-0.004-0.052 0.003-0.104 0.004-0.154 0.004-0.903 0-1.787-0.392-1.787-0.392 0 0.272 0.084 0.54 0.221 0.786 0.191 0.34 0.489 0.634 0.835 0.812l-0.244 3.502c-1.186-1.686-3.199-4.654-3.82-6.221-0.093-0.185-0.152-0.378-0.174-0.575-0.005-0.036-0.011-0.07-0.013-0.105 0-0.012-0.003-0.023-0.004-0.036-0.12 0.012-0.237 0.025-0.355 0.041-0.016 0.002-0.03 0.003-0.044 0.005-4.119 0.574-7.289 4.109-7.289 8.387 0 4.676 3.792 4.665 8.469 4.665h4.36 4.36c4.677 0 8.469 0.011 8.469-4.665C95 56.009 91.83 52.474 87.711 51.899z" data-fill-palette-color="background"></path><path fill="#ffffff" d="M75.567 43.771h0.215 1.157 0.445 9.572 0.445 1.157 0.215c0.515 0 0.932-0.417 0.932-0.931s-0.417-0.931-0.932-0.931h-0.254c0-2.475-1.417-4.617-3.483-5.665l-0.188 1.073-0.338 1.91c-0.041 0.236-0.246 0.403-0.478 0.403-0.028 0-0.057-0.002-0.086-0.008-0.265-0.046-0.441-0.299-0.395-0.564l0.371-2.105 0.229-1.303c-0.226-0.36-0.625-0.601-1.082-0.601H81.27c-0.457 0-0.855 0.24-1.082 0.601l0.23 1.303 0.371 2.105c0.046 0.265-0.13 0.518-0.396 0.564-0.028 0.005-0.057 0.008-0.085 0.008-0.232 0-0.438-0.166-0.479-0.403l-0.337-1.91-0.189-1.073c-2.066 1.048-3.482 3.19-3.482 5.665h-0.254c-0.515 0-0.932 0.417-0.932 0.931S75.053 43.771 75.567 43.771z" data-fill-palette-color="background"></path></g></svg></g></svg></g></svg></g></svg></g><g></g></svg></g><defs></defs></svg><rect width="395.52" height="230.0628878492612" fill="none" stroke="none" visibility="hidden"></rect></g></svg></g></svg>