<svg xmlns="http://www.w3.org/2000/svg" version="1.1" xmlns:xlink="http://www.w3.org/1999/xlink" xmlns:svgjs="http://svgjs.dev/svgjs" width="2000" height="2215" viewBox="0 0 2000 2215"><g transform="matrix(1,0,0,1,2.0223738257139985,0.8967611336031496)"><svg viewBox="0 0 223 247" data-background-color="#ffffff" preserveAspectRatio="xMidYMid meet" height="2215" width="2000" xmlns="http://www.w3.org/2000/svg" xmlns:xlink="http://www.w3.org/1999/xlink"><g id="tight-bounds" transform="matrix(1,0,0,1,-0.22549468156711328,-0.09999999999999432)"><svg viewBox="0 0 223.45098936313423 247.2" height="247.2" width="223.45098936313423"><g><svg viewBox="0 0 395.5199999999999 437.5569975262363" height="247.2" width="223.45098936313423"><g transform="matrix(1,0,0,1,0,351.224407939908)"><svg viewBox="0 0 395.5199999999999 86.33258958632828" height="86.33258958632828" width="395.5199999999999"><g id="textblocktransform"><svg viewBox="0 0 395.5199999999999 86.33258958632828" height="86.33258958632828" width="395.5199999999999" id="textblock"><g><svg viewBox="0 0 395.5199999999999 42.75891891891891" height="42.75891891891891" width="395.5199999999999"><g transform="matrix(1,0,0,1,0,0)"><svg width="395.5199999999999" viewBox="2 -37.95 366.27 39.6" height="42.75891891891891" data-palette-color="#001f3f"><path d="M2-36.25L25.55-36.25 25.55-31.05 16.4-31.05 16.4 0 10.95 0 10.95-31.05 2-31.05 2-36.25ZM56.6 0L51.2 0Q50.95-0.55 50.5-1.6 50.05-2.65 49.47-4.03 48.9-5.4 48.22-7.03 47.55-8.65 46.85-10.4L46.85-10.4 34.05-10.4 29.75 0 24.35 0 40.5-37.95Q40.8-37.25 41.57-35.4 42.35-33.55 43.42-30.98 44.5-28.4 45.82-25.28 47.15-22.15 48.52-18.95 49.9-15.75 51.22-12.65 52.55-9.55 53.65-6.95 54.75-4.35 55.52-2.53 56.3-0.7 56.6 0L56.6 0ZM39.95-24.7L35.95-15 45-15Q44.3-16.65 43.67-18.18 43.05-19.7 42.52-20.98 42-22.25 41.6-23.2 41.2-24.15 41-24.7L41-24.7Q40.95-24.8 40.77-25.4 40.6-26 40.5-26.5L40.5-26.5Q40.4-26 40.2-25.4 40-24.8 39.95-24.7L39.95-24.7ZM81.84-34.25L81.84-34.25 79.9-29.8Q77.84-30.55 75.82-31 73.8-31.45 71.95-31.45L71.95-31.45Q68.8-31.45 66.92-30.15 65.05-28.85 65.05-26.85L65.05-26.85Q65.05-25.15 66.4-24.13 67.75-23.1 69.75-22.28 71.75-21.45 74.09-20.63 76.45-19.8 78.45-18.5 80.45-17.2 81.8-15.23 83.15-13.25 83.15-10.15L83.15-10.15Q83.15-7.75 82.27-5.83 81.4-3.9 79.67-2.5 77.95-1.1 75.37-0.35 72.8 0.4 69.34 0.4L69.34 0.4Q67.15 0.4 65.37 0.1 63.6-0.2 62.17-0.68 60.75-1.15 59.67-1.7 58.6-2.25 57.85-2.7L57.85-2.7 60.25-7.45Q62.25-6.3 64.7-5.6 67.15-4.9 69.15-4.9L69.15-4.9Q70.15-4.9 71.62-5.15 73.09-5.4 74.45-6.03 75.8-6.65 76.77-7.7 77.75-8.75 77.75-10.35L77.75-10.35Q77.75-11.8 76.97-12.83 76.2-13.85 74.92-14.63 73.65-15.4 72.02-16.03 70.4-16.65 68.7-17.32 67-18 65.37-18.75 63.75-19.5 62.47-20.58 61.2-21.65 60.42-23.08 59.65-24.5 59.65-26.5L59.65-26.5Q59.65-28.35 60.4-30.15 61.15-31.95 62.65-33.35 64.15-34.75 66.37-35.6 68.59-36.45 71.55-36.45L71.55-36.45Q73.34-36.45 75.07-36.15 76.8-35.85 78.2-35.48 79.59-35.1 80.57-34.75 81.55-34.4 81.84-34.25ZM117.59 0L110.84 0Q109.09-2.25 107.49-4.3 105.89-6.35 104.34-8.4 102.79-10.45 101.22-12.55 99.64-14.65 97.89-16.9L97.89-16.9Q97.24-16.2 96.64-15.63 96.04-15.05 95.34-14.45L95.34-14.45Q95.34-10.6 95.37-7.23 95.39-3.85 95.39 0L95.39 0 89.34 0 89.34-36.25 95.39-36.25 95.39-22.7Q95.39-22.25 95.32-21.83 95.24-21.4 95.24-20.95L95.24-20.95Q95.49-21.3 95.74-21.58 95.99-21.85 96.24-22.25L96.24-22.25Q99.79-25.6 103.09-29.23 106.39-32.85 109.94-36.25L109.94-36.25 116.89-36.25Q113.14-32.35 109.47-28.4 105.79-24.45 102.04-20.55L102.04-20.55Q104.14-17.85 106.07-15.33 107.99-12.8 109.87-10.3 111.74-7.8 113.64-5.25 115.54-2.7 117.59 0L117.59 0ZM127.54 0L127.54-37.85Q127.99-37.15 129.41-35.18 130.84-33.2 132.71-30.6 134.59-28 136.69-25.08 138.79-22.15 140.64-19.58 142.49-17 143.86-15.1 145.24-13.2 145.69-12.6L145.69-12.6Q145.84-12.85 146.64-13.95 147.44-15.05 148.61-16.7 149.79-18.35 151.29-20.43 152.79-22.5 154.36-24.68 155.94-26.85 157.46-29 158.99-31.15 160.29-32.93 161.59-34.7 162.51-36.02 163.44-37.35 163.84-37.85L163.84-37.85 163.84 0 158.04 0 158.04-20.3Q158.04-20.7 158.11-21.15 158.19-21.6 158.19-21.8L158.19-21.8Q157.74-21.2 156.76-19.78 155.79-18.35 154.51-16.53 153.24-14.7 151.84-12.68 150.44-10.65 149.19-8.85 147.94-7.05 146.99-5.68 146.04-4.3 145.69-3.75L145.69-3.75Q145.34-4.2 144.31-5.63 143.29-7.05 141.91-8.95 140.54-10.85 139.01-13 137.49-15.15 136.19-17 134.89-18.85 133.94-20.18 132.99-21.5 132.84-21.8L132.84-21.8Q132.84-21.6 132.91-21.15 132.99-20.7 132.99-20.3L132.99-20.3 132.99 0 127.54 0ZM200.59 0L195.19 0Q194.94-0.55 194.49-1.6 194.04-2.65 193.46-4.03 192.89-5.4 192.21-7.03 191.54-8.65 190.84-10.4L190.84-10.4 178.04-10.4 173.74 0 168.34 0 184.49-37.95Q184.79-37.25 185.56-35.4 186.34-33.55 187.41-30.98 188.49-28.4 189.81-25.28 191.14-22.15 192.51-18.95 193.89-15.75 195.21-12.65 196.54-9.55 197.64-6.95 198.74-4.35 199.51-2.53 200.29-0.7 200.59 0L200.59 0ZM183.94-24.7L179.94-15 188.99-15Q188.29-16.65 187.66-18.18 187.04-19.7 186.51-20.98 185.99-22.25 185.59-23.2 185.19-24.15 184.99-24.7L184.99-24.7Q184.94-24.8 184.76-25.4 184.59-26 184.49-26.5L184.49-26.5Q184.39-26 184.19-25.4 183.99-24.8 183.94-24.7L183.94-24.7ZM231.43-36.25L236.88-36.25 236.88 1.65Q236.18 0.75 234.18-1.25 232.18-3.25 229.58-5.85 226.98-8.45 224.06-11.3 221.13-14.15 218.53-16.73 215.93-19.3 213.98-21.33 212.03-23.35 211.38-24.2L211.38-24.2 210.43-25.5 210.58-23.9 210.58 0 205.08 0 205.08-37.95Q205.63-37.25 206.91-35.95 208.18-34.65 209.91-32.93 211.63-31.2 213.71-29.2 215.78-27.2 217.91-25.15 220.03-23.1 222.11-21.13 224.18-19.15 225.91-17.45 227.63-15.75 228.88-14.45 230.13-13.15 230.63-12.5L230.63-12.5 231.58-11.1 231.43-12.8 231.43-36.25ZM273.63 0L268.23 0Q267.98-0.55 267.53-1.6 267.08-2.65 266.51-4.03 265.93-5.4 265.26-7.03 264.58-8.65 263.88-10.4L263.88-10.4 251.08-10.4 246.78 0 241.38 0 257.53-37.95Q257.83-37.25 258.61-35.4 259.38-33.55 260.46-30.98 261.53-28.4 262.86-25.28 264.18-22.15 265.56-18.95 266.93-15.75 268.26-12.65 269.58-9.55 270.68-6.95 271.78-4.35 272.56-2.53 273.33-0.7 273.63 0L273.63 0ZM256.98-24.7L252.98-15 262.03-15Q261.33-16.65 260.71-18.18 260.08-19.7 259.56-20.98 259.03-22.25 258.63-23.2 258.23-24.15 258.03-24.7L258.03-24.7Q257.98-24.8 257.81-25.4 257.63-26 257.53-26.5L257.53-26.5Q257.43-26 257.23-25.4 257.03-24.8 256.98-24.7L256.98-24.7ZM291.73-17.35L303.83-17.35 303.83-2.15Q301.73-0.95 298.83-0.28 295.93 0.4 292.93 0.4L292.93 0.4Q288.63 0.4 285.2-0.95 281.78-2.3 279.33-4.67 276.88-7.05 275.58-10.3 274.28-13.55 274.28-17.4L274.28-17.4Q274.28-21.65 275.8-25.18 277.33-28.7 279.95-31.25 282.58-33.8 286-35.23 289.43-36.65 293.28-36.65L293.28-36.65Q295.88-36.65 298.73-35.98 301.58-35.3 303.68-34.05L303.68-34.05 301.03-29.6Q300.28-30.05 299.3-30.4 298.33-30.75 297.28-31 296.23-31.25 295.18-31.38 294.13-31.5 293.18-31.5L293.18-31.5Q290.53-31.5 288.08-30.45 285.63-29.4 283.78-27.55 281.93-25.7 280.83-23.2 279.73-20.7 279.73-17.8L279.73-17.8Q279.73-15.15 280.7-12.8 281.68-10.45 283.43-8.65 285.18-6.85 287.63-5.8 290.08-4.75 293.03-4.75L293.03-4.75Q294.18-4.75 295.75-4.98 297.33-5.2 298.78-5.75L298.78-5.75 298.78-12.65 291.73-12.65 291.73-17.35ZM335.53 0L311.03 0 311.03-36.25 334.83-36.25 334.83-31.3 316.53-31.3 316.53-20.7 332.83-20.7 332.83-15.65 316.53-15.65 316.53-5.05 335.53-5.05 335.53 0ZM347.37 0L341.87 0 341.87-36.25 351.77-36.25Q354.62-36.25 357-35.5 359.37-34.75 361.1-33.27 362.82-31.8 363.77-29.68 364.72-27.55 364.72-24.8L364.72-24.8Q364.72-23.3 364.42-21.83 364.12-20.35 363.45-18.98 362.77-17.6 361.72-16.43 360.67-15.25 359.17-14.45L359.17-14.45Q361.17-11.3 363.52-7.48 365.87-3.65 368.27 0L368.27 0 361.72 0Q360.72-1.55 359.65-3.25 358.57-4.95 357.5-6.63 356.42-8.3 355.4-9.93 354.37-11.55 353.47-12.95L353.47-12.95 352.47-12.95 347.37-12.95 347.37 0ZM347.37-31.15L347.37-18.1 352.32-18.1Q354.32-18.1 355.67-18.78 357.02-19.45 357.8-20.45 358.57-21.45 358.9-22.6 359.22-23.75 359.22-24.7L359.22-24.7Q359.22-25.65 358.9-26.78 358.57-27.9 357.77-28.88 356.97-29.85 355.65-30.5 354.32-31.15 352.37-31.15L352.37-31.15 347.37-31.15Z" opacity="1" transform="matrix(1,0,0,1,0,0)" fill="#001f3f" class="wordmark-text-0" data-fill-palette-color="primary" id="text-0"></path></svg></g></svg></g><g transform="matrix(1,0,0,1,0,52.85327346162161)"><svg viewBox="0 0 395.5199999999999 33.47931612470667" height="33.47931612470667" width="395.5199999999999"><g transform="matrix(1,0,0,1,0,0)"><svg width="395.5199999999999" viewBox="1.75 -39.65 596.53 50.5" height="33.47931612470667" data-palette-color="#ba3b0a"><path d="M14.45-35.25Q20.55-35.25 23.85-30.8 27.15-26.35 27.15-17.3L27.15-17.3Q27.15-8.35 23.85-3.8 20.55 0.75 14.45 0.75L14.45 0.75Q8.4 0.75 5.08-3.75 1.75-8.25 1.75-17.25L1.75-17.25Q1.75-26.15 5.08-30.7 8.4-35.25 14.45-35.25L14.45-35.25ZM14.45-30.45Q11.4-30.45 9.93-27.4 8.45-24.35 8.45-17.25L8.45-17.25Q8.45-10.1 9.95-7.13 11.45-4.15 14.45-4.15L14.45-4.15Q17.55-4.15 19.03-7.1 20.5-10.05 20.5-17.3L20.5-17.3Q20.5-24.4 19-27.43 17.5-30.45 14.45-30.45L14.45-30.45ZM43.4-27.1Q44.55-27.1 45.45-26.75L45.45-26.75 44.45-20.85Q43.45-21.1 42.6-21.1L42.6-21.1Q40.7-21.1 39.6-19.45 38.5-17.8 37.9-14.55L37.9-14.55 37.9 0 31.75 0 31.75-26.45 37.1-26.45 37.55-21.85Q39.4-27.1 43.4-27.1L43.4-27.1ZM66.25-29.85L67.8-25.1Q66.75-24.6 65.27-24.4 63.8-24.2 61.6-24.2L61.6-24.2Q63.7-23.2 64.72-21.53 65.75-19.85 65.75-17.4L65.75-17.4Q65.75-13.4 63.3-10.95 60.85-8.5 56.65-8.5L56.65-8.5Q55.4-8.5 54.1-8.9L54.1-8.9Q53.2-8.15 53.2-6.85L53.2-6.85Q53.2-5.85 53.75-5.35 54.3-4.85 55.8-4.85L55.8-4.85 58.6-4.85Q62.6-4.85 64.95-2.78 67.3-0.7 67.3 2.5L67.3 2.5Q67.3 6.3 64.37 8.58 61.45 10.85 56.05 10.85L56.05 10.85Q50.35 10.85 48.07 8.75 45.8 6.65 45.8 2.6L45.8 2.6 51.25 2.6Q51.25 4.75 52.25 5.65 53.25 6.55 56.1 6.55L56.1 6.55Q58.85 6.55 60 5.6 61.15 4.65 61.15 2.9L61.15 2.9Q61.15 1.2 60.2 0.4 59.25-0.4 57.25-0.4L57.25-0.4 55.35-0.4Q51.55-0.4 49.8-1.75 48.05-3.1 48.05-5.45L48.05-5.45Q48.05-6.8 48.77-8.03 49.5-9.25 50.75-10.2L50.75-10.2Q48.7-11.5 47.75-13.3 46.8-15.1 46.8-17.7L46.8-17.7Q46.8-22.05 49.4-24.58 52-27.1 56.4-27.1L56.4-27.1Q59.65-27.1 61.77-27.8 63.9-28.5 66.25-29.85L66.25-29.85ZM56.4-23Q54.65-23 53.75-21.75 52.85-20.5 52.85-17.8L52.85-17.8Q52.85-15.25 53.75-13.88 54.65-12.5 56.35-12.5L56.35-12.5Q58.1-12.5 58.95-13.73 59.8-14.95 59.8-17.85L59.8-17.85Q59.8-20.55 58.97-21.78 58.15-23 56.4-23L56.4-23ZM87.44-6.4Q87.44-5.1 87.79-4.48 88.14-3.85 88.94-3.45L88.94-3.45 87.69 0.65Q85.64 0.4 84.42-0.45 83.19-1.3 82.59-3.05L82.59-3.05Q80.29 0.75 76.14 0.75L76.14 0.75Q72.84 0.75 70.89-1.48 68.94-3.7 68.94-7.4L68.94-7.4Q68.94-11.7 71.62-13.95 74.29-16.2 79.39-16.2L79.39-16.2 81.44-16.2 81.44-18.05Q81.44-20.55 80.57-21.58 79.69-22.6 77.74-22.6L77.74-22.6Q75.39-22.6 71.89-21.3L71.89-21.3 70.49-25.3Q72.49-26.2 74.64-26.68 76.79-27.15 78.74-27.15L78.74-27.15Q87.44-27.15 87.44-18.35L87.44-18.35 87.44-6.4ZM77.79-3.7Q80.19-3.7 81.44-7L81.44-7 81.44-12.55 79.99-12.55Q77.44-12.55 76.27-11.4 75.09-10.25 75.09-7.85L75.09-7.85Q75.09-5.8 75.79-4.75 76.49-3.7 77.79-3.7L77.79-3.7ZM105.59-27.15Q108.44-27.15 110.09-25.1 111.74-23.05 111.74-19.6L111.74-19.6 111.74 0 105.59 0 105.59-18.9Q105.59-20.8 105.07-21.63 104.54-22.45 103.54-22.45L103.54-22.45Q101.44-22.45 99.39-18.5L99.39-18.5 99.39 0 93.24 0 93.24-26.45 98.59-26.45 99.04-23Q100.39-25.1 101.92-26.13 103.44-27.15 105.59-27.15L105.59-27.15ZM117.29-26.45L123.44-26.45 123.44 0 117.29 0 117.29-26.45ZM120.34-39.65Q121.99-39.65 123.01-38.6 124.04-37.55 124.04-35.9L124.04-35.9Q124.04-34.3 123.01-33.25 121.99-32.2 120.34-32.2L120.34-32.2Q118.69-32.2 117.66-33.25 116.64-34.3 116.64-35.9L116.64-35.9Q116.64-37.55 117.66-38.6 118.69-39.65 120.34-39.65L120.34-39.65ZM127.84-26.45L144.09-26.45 144.09-22 133.54-4.85 144.29-4.85 143.74 0 126.94 0 126.94-4.45 137.49-21.6 127.84-21.6 127.84-26.45ZM164.78-6.4Q164.78-5.1 165.13-4.48 165.48-3.85 166.28-3.45L166.28-3.45 165.03 0.65Q162.98 0.4 161.76-0.45 160.53-1.3 159.93-3.05L159.93-3.05Q157.63 0.75 153.48 0.75L153.48 0.75Q150.18 0.75 148.23-1.48 146.28-3.7 146.28-7.4L146.28-7.4Q146.28-11.7 148.96-13.95 151.63-16.2 156.73-16.2L156.73-16.2 158.78-16.2 158.78-18.05Q158.78-20.55 157.91-21.58 157.03-22.6 155.08-22.6L155.08-22.6Q152.73-22.6 149.23-21.3L149.23-21.3 147.83-25.3Q149.83-26.2 151.98-26.68 154.13-27.15 156.08-27.15L156.08-27.15Q164.78-27.15 164.78-18.35L164.78-18.35 164.78-6.4ZM155.13-3.7Q157.53-3.7 158.78-7L158.78-7 158.78-12.55 157.33-12.55Q154.78-12.55 153.61-11.4 152.43-10.25 152.43-7.85L152.43-7.85Q152.43-5.8 153.13-4.75 153.83-3.7 155.13-3.7L155.13-3.7ZM181.73-5L183.88-1.2Q181.43 0.75 178.13 0.75L178.13 0.75Q174.68 0.75 172.88-1.23 171.08-3.2 171.08-6.6L171.08-6.6 171.08-22 167.98-22 167.98-26.45 171.08-26.45 171.08-32.3 177.23-33.05 177.23-26.45 182.23-26.45 181.63-22 177.23-22 177.23-6.6Q177.23-4.2 179.28-4.2L179.28-4.2Q179.93-4.2 180.43-4.38 180.93-4.55 181.73-5L181.73-5ZM186.43-26.45L192.58-26.45 192.58 0 186.43 0 186.43-26.45ZM189.48-39.65Q191.13-39.65 192.15-38.6 193.18-37.55 193.18-35.9L193.18-35.9Q193.18-34.3 192.15-33.25 191.13-32.2 189.48-32.2L189.48-32.2Q187.83-32.2 186.8-33.25 185.78-34.3 185.78-35.9L185.78-35.9Q185.78-37.55 186.8-38.6 187.83-39.65 189.48-39.65L189.48-39.65ZM207.68-27.15Q212.68-27.15 215.45-23.65 218.23-20.15 218.23-13.25L218.23-13.25Q218.23-6.65 215.43-2.95 212.63 0.75 207.68 0.75L207.68 0.75Q202.73 0.75 199.93-2.88 197.13-6.5 197.13-13.25L197.13-13.25Q197.13-19.95 199.93-23.55 202.73-27.15 207.68-27.15L207.68-27.15ZM207.68-22.5Q205.53-22.5 204.53-20.38 203.53-18.25 203.53-13.25L203.53-13.25Q203.53-8.2 204.53-6.08 205.53-3.95 207.68-3.95L207.68-3.95Q209.83-3.95 210.83-6.08 211.83-8.2 211.83-13.25L211.83-13.25Q211.83-18.3 210.83-20.4 209.83-22.5 207.68-22.5L207.68-22.5ZM235.12-27.15Q237.97-27.15 239.62-25.1 241.27-23.05 241.27-19.6L241.27-19.6 241.27 0 235.12 0 235.12-18.9Q235.12-20.8 234.6-21.63 234.07-22.45 233.07-22.45L233.07-22.45Q230.97-22.45 228.92-18.5L228.92-18.5 228.92 0 222.77 0 222.77-26.45 228.12-26.45 228.57-23Q229.92-25.1 231.45-26.13 232.97-27.15 235.12-27.15L235.12-27.15ZM266.07-27.15Q271.07-27.15 273.84-23.65 276.62-20.15 276.62-13.25L276.62-13.25Q276.62-6.65 273.82-2.95 271.02 0.75 266.07 0.75L266.07 0.75Q261.12 0.75 258.32-2.88 255.52-6.5 255.52-13.25L255.52-13.25Q255.52-19.95 258.32-23.55 261.12-27.15 266.07-27.15L266.07-27.15ZM266.07-22.5Q263.92-22.5 262.92-20.38 261.92-18.25 261.92-13.25L261.92-13.25Q261.92-8.2 262.92-6.08 263.92-3.95 266.07-3.95L266.07-3.95Q268.22-3.95 269.22-6.08 270.22-8.2 270.22-13.25L270.22-13.25Q270.22-18.3 269.22-20.4 268.22-22.5 266.07-22.5L266.07-22.5ZM290.87-33.05Q289.46-33.05 288.79-32.3 288.12-31.55 288.12-30L288.12-30 288.12-26.45 293.17-26.45 292.46-22 288.12-22 288.12 0 281.96 0 281.96-22 278.67-22 278.67-26.45 281.96-26.45 281.96-29.8Q281.96-33.4 284.06-35.55 286.17-37.7 290.06-37.7L290.06-37.7Q293.12-37.7 295.96-36.2L295.96-36.2 294.26-32.2Q292.51-33.05 290.87-33.05L290.87-33.05ZM327.86-26.45L333.56-26.45 329.01 0 321.51 0 318.56-20.85 315.66 0 308.21 0 303.56-26.45 309.51-26.45 312.21-4.6 315.56-26.45 321.81-26.45 325.01-4.6 327.86-26.45ZM346.46-27.15Q351.46-27.15 354.23-23.65 357.01-20.15 357.01-13.25L357.01-13.25Q357.01-6.65 354.21-2.95 351.41 0.75 346.46 0.75L346.46 0.75Q341.51 0.75 338.71-2.88 335.91-6.5 335.91-13.25L335.91-13.25Q335.91-19.95 338.71-23.55 341.51-27.15 346.46-27.15L346.46-27.15ZM346.46-22.5Q344.31-22.5 343.31-20.38 342.31-18.25 342.31-13.25L342.31-13.25Q342.31-8.2 343.31-6.08 344.31-3.95 346.46-3.95L346.46-3.95Q348.61-3.95 349.61-6.08 350.61-8.2 350.61-13.25L350.61-13.25Q350.61-18.3 349.61-20.4 348.61-22.5 346.46-22.5L346.46-22.5ZM373.21-27.1Q374.36-27.1 375.26-26.75L375.26-26.75 374.26-20.85Q373.26-21.1 372.41-21.1L372.41-21.1Q370.51-21.1 369.41-19.45 368.31-17.8 367.71-14.55L367.71-14.55 367.71 0 361.56 0 361.56-26.45 366.91-26.45 367.36-21.85Q369.21-27.1 373.21-27.1L373.21-27.1ZM378.1-37.05L384.25-37.7 384.25 0 378.1 0 378.1-37.05ZM391.6-26.45L397.6-26.45 390.6-14.75 398.2 0 391.6 0 384.5-14.45 391.6-26.45ZM422.8-27.15Q426.7-27.15 428.7-23.58 430.7-20 430.7-13.3L430.7-13.3Q430.7-6.8 428.42-3.03 426.15 0.75 422.1 0.75L422.1 0.75Q418.9 0.75 416.75-2.1L416.75-2.1 416.75 10.15 410.6 10.85 410.6-26.45 416.05-26.45 416.3-23.25Q417.6-25.25 419.2-26.2 420.8-27.15 422.8-27.15L422.8-27.15ZM420.45-3.95Q422.35-3.95 423.35-6.13 424.35-8.3 424.35-13.25L424.35-13.25Q424.35-18.45 423.5-20.5 422.65-22.55 420.85-22.55L420.85-22.55Q418.55-22.55 416.75-19.25L416.75-19.25 416.75-6.45Q418.35-3.95 420.45-3.95L420.45-3.95ZM446.95-27.1Q448.1-27.1 449-26.75L449-26.75 448-20.85Q447-21.1 446.15-21.1L446.15-21.1Q444.25-21.1 443.15-19.45 442.05-17.8 441.45-14.55L441.45-14.55 441.45 0 435.3 0 435.3-26.45 440.65-26.45 441.1-21.85Q442.95-27.1 446.95-27.1L446.95-27.1ZM461.24-27.15Q466.24-27.15 469.02-23.65 471.79-20.15 471.79-13.25L471.79-13.25Q471.79-6.65 468.99-2.95 466.19 0.75 461.24 0.75L461.24 0.75Q456.29 0.75 453.49-2.88 450.69-6.5 450.69-13.25L450.69-13.25Q450.69-19.95 453.49-23.55 456.29-27.15 461.24-27.15L461.24-27.15ZM461.24-22.5Q459.09-22.5 458.09-20.38 457.09-18.25 457.09-13.25L457.09-13.25Q457.09-8.2 458.09-6.08 459.09-3.95 461.24-3.95L461.24-3.95Q463.39-3.95 464.39-6.08 465.39-8.2 465.39-13.25L465.39-13.25Q465.39-18.3 464.39-20.4 463.39-22.5 461.24-22.5L461.24-22.5ZM485.84-27.15Q487.99-27.15 489.74-26.43 491.49-25.7 493.09-24.15L493.09-24.15 490.44-20.65Q489.34-21.55 488.37-21.98 487.39-22.4 486.24-22.4L486.24-22.4Q483.99-22.4 482.84-20.28 481.69-18.15 481.69-13.1L481.69-13.1Q481.69-8.2 482.87-6.2 484.04-4.2 486.24-4.2L486.24-4.2Q487.34-4.2 488.24-4.6 489.14-5 490.34-5.85L490.34-5.85 493.09-2.3Q489.89 0.75 485.94 0.75L485.94 0.75Q480.84 0.75 478.02-2.73 475.19-6.2 475.19-13L475.19-13Q475.19-17.4 476.49-20.6 477.79-23.8 480.22-25.48 482.64-27.15 485.84-27.15L485.84-27.15ZM514.99-13.85Q514.99-13.4 514.84-11.3L514.84-11.3 501.19-11.3Q501.39-7.2 502.61-5.58 503.84-3.95 506.09-3.95L506.09-3.95Q507.64-3.95 508.89-4.48 510.14-5 511.59-6.15L511.59-6.15 514.14-2.65Q510.64 0.75 505.74 0.75L505.74 0.75Q500.54 0.75 497.76-2.85 494.99-6.45 494.99-13L494.99-13Q494.99-19.55 497.64-23.35 500.29-27.15 505.14-27.15L505.14-27.15Q509.79-27.15 512.39-23.78 514.99-20.4 514.99-13.85L514.99-13.85ZM508.99-15.3L508.99-15.65Q508.99-19.4 508.09-21.13 507.19-22.85 505.19-22.85L505.19-22.85Q503.34-22.85 502.36-21.18 501.39-19.5 501.19-15.3L501.19-15.3 508.99-15.3ZM526.64-27.15Q531.34-27.15 534.59-24.05L534.59-24.05 532.24-20.7Q530.84-21.7 529.59-22.2 528.34-22.7 527.04-22.7L527.04-22.7Q525.59-22.7 524.76-21.93 523.94-21.15 523.94-19.8L523.94-19.8Q523.94-18.45 524.86-17.63 525.79-16.8 528.59-15.7L528.59-15.7Q532.04-14.35 533.69-12.5 535.34-10.65 535.34-7.55L535.34-7.55Q535.34-3.7 532.64-1.48 529.94 0.75 525.79 0.75L525.79 0.75Q523.09 0.75 520.81-0.23 518.54-1.2 516.84-2.95L516.84-2.95 519.84-6.25Q522.64-3.8 525.54-3.8L525.54-3.8Q527.19-3.8 528.14-4.67 529.09-5.55 529.09-7.1L529.09-7.1Q529.09-8.25 528.69-8.97 528.29-9.7 527.29-10.33 526.29-10.95 524.29-11.7L524.29-11.7Q520.84-13.05 519.36-14.85 517.89-16.65 517.89-19.45L517.89-19.45Q517.89-22.8 520.26-24.98 522.64-27.15 526.64-27.15L526.64-27.15ZM546.53-27.15Q551.23-27.15 554.48-24.05L554.48-24.05 552.13-20.7Q550.73-21.7 549.48-22.2 548.23-22.7 546.93-22.7L546.93-22.7Q545.48-22.7 544.66-21.93 543.83-21.15 543.83-19.8L543.83-19.8Q543.83-18.45 544.76-17.63 545.68-16.8 548.48-15.7L548.48-15.7Q551.93-14.35 553.58-12.5 555.23-10.65 555.23-7.55L555.23-7.55Q555.23-3.7 552.53-1.48 549.83 0.75 545.68 0.75L545.68 0.75Q542.98 0.75 540.71-0.23 538.43-1.2 536.73-2.95L536.73-2.95 539.73-6.25Q542.53-3.8 545.43-3.8L545.43-3.8Q547.08-3.8 548.03-4.67 548.98-5.55 548.98-7.1L548.98-7.1Q548.98-8.25 548.58-8.97 548.18-9.7 547.18-10.33 546.18-10.95 544.18-11.7L544.18-11.7Q540.73-13.05 539.26-14.85 537.78-16.65 537.78-19.45L537.78-19.45Q537.78-22.8 540.16-24.98 542.53-27.15 546.53-27.15L546.53-27.15ZM577.93-13.85Q577.93-13.4 577.78-11.3L577.78-11.3 564.13-11.3Q564.33-7.2 565.55-5.58 566.78-3.95 569.03-3.95L569.03-3.95Q570.58-3.95 571.83-4.48 573.08-5 574.53-6.15L574.53-6.15 577.08-2.65Q573.58 0.75 568.68 0.75L568.68 0.75Q563.48 0.75 560.7-2.85 557.93-6.45 557.93-13L557.93-13Q557.93-19.55 560.58-23.35 563.23-27.15 568.08-27.15L568.08-27.15Q572.73-27.15 575.33-23.78 577.93-20.4 577.93-13.85L577.93-13.85ZM571.93-15.3L571.93-15.65Q571.93-19.4 571.03-21.13 570.13-22.85 568.13-22.85L568.13-22.85Q566.28-22.85 565.3-21.18 564.33-19.5 564.13-15.3L564.13-15.3 571.93-15.3ZM589.58-27.15Q594.28-27.15 597.53-24.05L597.53-24.05 595.18-20.7Q593.78-21.7 592.53-22.2 591.28-22.7 589.98-22.7L589.98-22.7Q588.53-22.7 587.7-21.93 586.88-21.15 586.88-19.8L586.88-19.8Q586.88-18.45 587.8-17.63 588.73-16.8 591.53-15.7L591.53-15.7Q594.98-14.35 596.63-12.5 598.28-10.65 598.28-7.55L598.28-7.55Q598.28-3.7 595.58-1.48 592.88 0.75 588.73 0.75L588.73 0.75Q586.03 0.75 583.75-0.23 581.48-1.2 579.78-2.95L579.78-2.95 582.78-6.25Q585.58-3.8 588.48-3.8L588.48-3.8Q590.13-3.8 591.08-4.67 592.03-5.55 592.03-7.1L592.03-7.1Q592.03-8.25 591.63-8.97 591.23-9.7 590.23-10.33 589.23-10.95 587.23-11.7L587.23-11.7Q583.78-13.05 582.3-14.85 580.83-16.65 580.83-19.45L580.83-19.45Q580.83-22.8 583.2-24.98 585.58-27.15 589.58-27.15L589.58-27.15Z" opacity="1" transform="matrix(1,0,0,1,0,0)" fill="#ba3b0a" class="slogan-text-1" data-fill-palette-color="secondary" id="text-1"></path></svg></g></svg></g></svg></g></svg></g><g transform="matrix(1,0,0,1,27.19497330139731,0)"><svg viewBox="0 0 341.1300533972053 341.1300533972053" height="341.1300533972053" width="341.1300533972053"><g><svg></svg></g><g id="icon-0"><svg viewBox="0 0 341.1300533972053 341.1300533972053" height="341.1300533972053" width="341.1300533972053"><g><rect width="310.17565966301447" height="310.17565966301447" x="15.477196867095415" y="15.477196867095415" fill="#e84016" data-fill-palette-color="accent"></rect><rect width="310.17565966301447" height="310.17565966301447" x="-8.881784197001252e-15" y="30.954393734190838" fill="#e84016" opacity="0.5" data-fill-palette-color="accent"></rect></g><g transform="matrix(1,0,0,1,44.2205624774155,44.2205624774155)"><svg viewBox="0 0 252.6889284423743 252.6889284423743" height="252.6889284423743" width="252.6889284423743"><g><svg xmlns="http://www.w3.org/2000/svg" xmlns:xlink="http://www.w3.org/1999/xlink" version="1.1" x="0" y="0" viewBox="5 5 90 90" style="enable-background:new 0 0 100 100;" xml:space="preserve" height="252.6889284423743" width="252.6889284423743" class="icon-cg-0" data-fill-palette-color="quaternary" id="cg-0"><path d="M93 11h-8V7c0-1.1-0.9-2-2-2s-2 0.9-2 2v4h-7V7c0-1.1-0.9-2-2-2s-2 0.9-2 2v4h-7V7c0-1.1-0.9-2-2-2s-2 0.9-2 2v4h-7V7c0-1.1-0.9-2-2-2s-2 0.9-2 2v4h-7V7c0-1.1-0.9-2-2-2s-2 0.9-2 2v4h-7V7c0-1.1-0.9-2-2-2s-2 0.9-2 2v4h-7V7c0-1.1-0.9-2-2-2s-2 0.9-2 2v4H7c-1.1 0-2 0.9-2 2v80c0 1.1 0.9 2 2 2h86c1.1 0 2-0.9 2-2V13C95 11.9 94.1 11 93 11zM91 91H9V15h6v4c0 1.1 0.9 2 2 2s2-0.9 2-2v-4h7v4c0 1.1 0.9 2 2 2s2-0.9 2-2v-4h7v4c0 1.1 0.9 2 2 2s2-0.9 2-2v-4h7v4c0 1.1 0.9 2 2 2s2-0.9 2-2v-4h7v4c0 1.1 0.9 2 2 2s2-0.9 2-2v-4h7v4c0 1.1 0.9 2 2 2s2-0.9 2-2v-4h7v4c0 1.1 0.9 2 2 2s2-0.9 2-2v-4h6V91zM60 42h6.9l1.2 4.5c0.2 0.8 0.9 1.4 1.8 1.5 0.1 0 0.1 0 0.2 0 0.8 0 1.5-0.5 1.8-1.2l2.2-4.8H82c1.1 0 2-0.9 2-2V28c0-1.1-0.9-2-2-2H60c-1.1 0-2 0.9-2 2v12C58 41.1 58.9 42 60 42zM62 30h18v8h-7.2c-0.8 0-1.5 0.5-1.8 1.2l-0.4 0.9-0.2-0.6c-0.2-0.9-1-1.5-1.9-1.5H62V30zM61 70h-7.9l-2.2-4.8c-0.4-0.8-1.1-1.2-2-1.2-0.8 0.1-1.5 0.7-1.8 1.5L45.9 70H39c-1.1 0-2 0.9-2 2v12c0 1.1 0.9 2 2 2h22c1.1 0 2-0.9 2-2V72C63 70.9 62.1 70 61 70zM59 82H41v-8h6.5c0.9 0 1.7-0.6 1.9-1.5l0.2-0.6 0.4 0.9c0.3 0.7 1 1.2 1.8 1.2H59V82zM16 42h7.9l2.2 4.8c0.3 0.7 1 1.2 1.8 1.2 0.1 0 0.1 0 0.2 0 0.8-0.1 1.5-0.7 1.8-1.5l1.2-4.5H38c1.1 0 2-0.9 2-2V28c0-1.1-0.9-2-2-2H16c-1.1 0-2 0.9-2 2v12C14 41.1 14.9 42 16 42zM18 30h18v8h-6.5c-0.9 0-1.7 0.6-1.9 1.5l-0.2 0.6L27 39.2c-0.3-0.7-1-1.2-1.8-1.2H18V30zM84 50H16c-1.1 0-2 0.9-2 2v8c0 1.1 0.9 2 2 2h68c1.1 0 2-0.9 2-2v-8C86 50.9 85.1 50 84 50zM82 58H18v-4h64V58z" fill="#ffffff" data-fill-palette-color="quaternary"></path></svg></g></svg></g></svg></g></svg></g><g></g></svg></g><defs></defs></svg><rect width="223.45098936313423" height="247.2" fill="none" stroke="none" visibility="hidden"></rect></g></svg></g></svg>